<svg width="165" height="17" viewBox="0 0 165 17" fill="none" xmlns="http://www.w3.org/2000/svg">
<path d="M5.47409 16.422L0.0690918 0.322H3.51909L7.45209 12.696L11.3621 0.322H14.8351L9.40709 16.422H5.47409Z" fill="#2B318B"/>
<path d="M16.3867 0.322H19.5607V16.422H16.3867V0.322Z" fill="#2B318B"/>
<path d="M26.52 16.422L21.115 0.322H24.565L28.498 12.696L32.408 0.322H35.881L30.453 16.422H26.52Z" fill="#2B318B"/>
<path d="M46.8617 16.422L45.8957 13.524H39.4787L38.5127 16.422H35.0857L40.7207 0.322H44.6537L50.3117 16.422H46.8617ZM40.4907 10.557H44.9067L42.6987 3.979L40.4907 10.557Z" fill="#2B318B"/>
<path d="M57.0126 16.744C55.4179 16.744 54.0763 16.3913 52.9876 15.686C51.8989 14.9653 51.1323 13.9917 50.6876 12.765L53.4016 11.178C54.0303 12.8187 55.2646 13.639 57.1046 13.639C57.9939 13.639 58.6456 13.478 59.0596 13.156C59.4736 12.834 59.6806 12.4277 59.6806 11.937C59.6806 11.3697 59.4276 10.9327 58.9216 10.626C58.4156 10.304 57.5109 9.959 56.2076 9.591C55.4869 9.37633 54.8736 9.16167 54.3676 8.947C53.8769 8.73233 53.3786 8.44867 52.8726 8.096C52.3819 7.728 52.0063 7.268 51.7456 6.716C51.4849 6.164 51.3546 5.52 51.3546 4.784C51.3546 3.32733 51.8683 2.16967 52.8956 1.311C53.9383 0.437 55.1879 0 56.6446 0C57.9479 0 59.0903 0.322 60.0716 0.966C61.0683 1.59467 61.8426 2.47633 62.3946 3.611L59.7266 5.152C59.0826 3.772 58.0553 3.082 56.6446 3.082C55.9853 3.082 55.4639 3.23533 55.0806 3.542C54.7126 3.83333 54.5286 4.21667 54.5286 4.692C54.5286 5.198 54.7356 5.612 55.1496 5.934C55.5789 6.24067 56.3916 6.578 57.5876 6.946C58.0783 7.09933 58.4463 7.222 58.6916 7.314C58.9523 7.39067 59.2973 7.521 59.7266 7.705C60.1713 7.87367 60.5086 8.03467 60.7386 8.188C60.9839 8.34133 61.2599 8.54833 61.5666 8.809C61.8733 9.06967 62.1033 9.338 62.2566 9.614C62.4253 9.89 62.5633 10.2273 62.6706 10.626C62.7933 11.0093 62.8546 11.431 62.8546 11.891C62.8546 13.3783 62.3103 14.559 61.2216 15.433C60.1483 16.307 58.7453 16.744 57.0126 16.744Z" fill="#2B318B"/>
<path d="M81.3238 0.322V3.358H76.9768V16.422H73.8028V3.358H69.4788V0.322H81.3238Z" fill="#2BA9E1"/>
<path d="M95.7218 14.329C94.0964 15.939 92.1184 16.744 89.7878 16.744C87.4571 16.744 85.4791 15.939 83.8538 14.329C82.2438 12.7037 81.4388 10.718 81.4388 8.372C81.4388 6.026 82.2438 4.048 83.8538 2.438C85.4791 0.812667 87.4571 0 89.7878 0C92.1184 0 94.0964 0.812667 95.7218 2.438C97.3471 4.048 98.1598 6.026 98.1598 8.372C98.1598 10.718 97.3471 12.7037 95.7218 14.329ZM86.0848 12.167C87.0814 13.1483 88.3158 13.639 89.7878 13.639C91.2598 13.639 92.4941 13.1483 93.4908 12.167C94.4875 11.1703 94.9858 9.90533 94.9858 8.372C94.9858 6.83867 94.4875 5.57367 93.4908 4.577C92.4941 3.58033 91.2598 3.082 89.7878 3.082C88.3158 3.082 87.0814 3.58033 86.0848 4.577C85.0881 5.57367 84.5898 6.83867 84.5898 8.372C84.5898 9.90533 85.0881 11.1703 86.0848 12.167Z" fill="#2BA9E1"/>
<path d="M106.281 16.744C104.487 16.744 103.015 16.238 101.865 15.226C100.715 14.214 100.14 12.857 100.14 11.155V0.322H103.291V10.902C103.291 11.7453 103.529 12.4123 104.004 12.903C104.495 13.3937 105.254 13.639 106.281 13.639C107.309 13.639 108.06 13.3937 108.535 12.903C109.026 12.4123 109.271 11.7453 109.271 10.902V0.322H112.445V11.155C112.445 12.857 111.87 14.214 110.72 15.226C109.57 16.238 108.091 16.744 106.281 16.744Z" fill="#2BA9E1"/>
<path d="M124.137 16.422L120.894 10.833H118.479V16.422H115.305V0.322H121.745C123.232 0.322 124.497 0.843333 125.54 1.886C126.582 2.92867 127.104 4.186 127.104 5.658C127.104 6.65467 126.82 7.58233 126.253 8.441C125.685 9.28433 124.934 9.92067 123.999 10.35L127.564 16.422H124.137ZM118.479 3.289V8.05H121.745C122.343 8.05 122.856 7.82 123.286 7.36C123.715 6.88467 123.93 6.31733 123.93 5.658C123.93 4.99867 123.715 4.439 123.286 3.979C122.856 3.519 122.343 3.289 121.745 3.289H118.479Z" fill="#2BA9E1"/>
<path d="M129.433 0.322H132.607V16.422H129.433V0.322Z" fill="#2BA9E1"/>
<path d="M140.837 16.744C139.242 16.744 137.9 16.3913 136.812 15.686C135.723 14.9653 134.956 13.9917 134.512 12.765L137.226 11.178C137.854 12.8187 139.089 13.639 140.929 13.639C141.818 13.639 142.47 13.478 142.884 13.156C143.298 12.834 143.505 12.4277 143.505 11.937C143.505 11.3697 143.252 10.9327 142.746 10.626C142.24 10.304 141.335 9.959 140.032 9.591C139.311 9.37633 138.698 9.16167 138.192 8.947C137.701 8.73233 137.203 8.44867 136.697 8.096C136.206 7.728 135.83 7.268 135.57 6.716C135.309 6.164 135.179 5.52 135.179 4.784C135.179 3.32733 135.692 2.16967 136.72 1.311C137.762 0.437 139.012 0 140.469 0C141.772 0 142.914 0.322 143.896 0.966C144.892 1.59467 145.667 2.47633 146.219 3.611L143.551 5.152C142.907 3.772 141.879 3.082 140.469 3.082C139.809 3.082 139.288 3.23533 138.905 3.542C138.537 3.83333 138.353 4.21667 138.353 4.692C138.353 5.198 138.56 5.612 138.974 5.934C139.403 6.24067 140.216 6.578 141.412 6.946C141.902 7.09933 142.27 7.222 142.516 7.314C142.776 7.39067 143.121 7.521 143.551 7.705C143.995 7.87367 144.333 8.03467 144.563 8.188C144.808 8.34133 145.084 8.54833 145.391 8.809C145.697 9.06967 145.927 9.338 146.081 9.614C146.249 9.89 146.387 10.2273 146.495 10.626C146.617 11.0093 146.679 11.431 146.679 11.891C146.679 13.3783 146.134 14.559 145.046 15.433C143.972 16.307 142.569 16.744 140.837 16.744Z" fill="#2BA9E1"/>
<path d="M164.392 0.322V16.422H161.241V5.98L156.71 13.455H156.342L151.811 6.003V16.422H148.637V0.322H151.903L156.526 7.935L161.126 0.322H164.392Z" fill="#2BA9E1"/>
</svg>
