<?xml version="1.0" encoding="utf-8"?>
<!-- Generator: Adobe Illustrator 27.0.0, SVG Export Plug-In . SVG Version: 6.00 Build 0)  -->
<svg version="1.1" id="Layer_1" xmlns="http://www.w3.org/2000/svg" xmlns:xlink="http://www.w3.org/1999/xlink" x="0px" y="0px"
	 viewBox="0 0 85 85" style="enable-background:new 0 0 85 85;" xml:space="preserve">
<style type="text/css">
	.st0{fill:#0057A7;}
	.st1{fill:#FFDC00;}
	.st2{fill:#1873BB;}
</style>
<g>
	<path class="st0" d="M53.4,46.2c2,6.9-1.9,14.1-8.8,16.1c-6.9,2-14.1-1.9-16.1-8.8c-2-6.9,1.9-14.1,8.8-16.1
		C44.2,35.4,51.4,39.3,53.4,46.2z"/>
	<g>
		<path class="st1" d="M72.9,44.6c-1.5-8.9-6.4-16.2-13-20.9c-0.4,1-1.4,3.7-2.4,7.2c-0.9,3.3-0.5,6.8,1.1,9.9
			c0.6,1.1,1.1,2.3,1.4,3.5c1.5,5.3,0.8,10.7-1.7,15.2c0,0,0,0,0,0l0,0c-2.4,4.4-6.6,7.9-11.8,9.5c-1.8,0.5-3.7,0.8-5.6,0.8
			c-8.8,0-16.6-5.9-19.1-14.3C20.4,50.3,21,45,23.5,40.3c2.5-4.7,6.8-8.1,11.9-9.5c1.8-0.5,3.7-0.8,5.6-0.8c1.2,0,2.4,0.1,3.5,0.3
			c3.9,0.7,7.9,0.1,11-2.4c1.5-1.2,2.9-2.6,4.3-4.3c-5.4-3.9-12-6.1-18.8-6.1c-4.4,0-8.9,0.9-13.3,2.9c-13.3,5.9-21,20.4-18.6,34.7
			C11.8,71.4,25.7,82.2,41,82.2c3.7,0,7.6-0.7,11.3-2C66.7,74.8,75.4,59.7,72.9,44.6z"/>
		<polygon class="st1" points="58.4,59.5 58.4,59.5 58.4,59.5 		"/>
	</g>
	<g>
		<g>
			<polygon class="st2" points="53.7,12.8 76.4,2.8 70.6,16.9 60,14.3 			"/>
			<polygon class="st0" points="60,14.3 72.5,6 62.9,15.1 62.3,19.3 			"/>
		</g>
	</g>
</g>
</svg>
