<svg width="24" height="24" viewBox="0 0 24 24" fill="none" xmlns="http://www.w3.org/2000/svg">
<path d="M5.15002 2V22" stroke="#22242C" stroke-width="1.5" stroke-miterlimit="10" stroke-linecap="round" stroke-linejoin="round"/>
<path d="M5.15002 4H16.35C19.05 4 19.65 5.5 17.75 7.4L16.55 8.6C15.75 9.4 15.75 10.7 16.55 11.4L17.75 12.6C19.65 14.5 18.95 16 16.35 16H5.15002" stroke="#22242C" stroke-width="1.5" stroke-miterlimit="10" stroke-linecap="round" stroke-linejoin="round"/>
<path d="M22 5C22 5.32 21.96 5.62999 21.88 5.92999C21.79 6.32999 21.63 6.72 21.42 7.06C20.94 7.87 20.17 8.49998 19.25 8.78998C18.86 8.92998 18.44 9 18 9C16.97 9 16.04 8.60997 15.34 7.96997C15.04 7.70997 14.78 7.4 14.58 7.06C14.21 6.46 14 5.75 14 5C14 4.56 14.07 4.13999 14.2 3.73999C14.39 3.15999 14.71 2.64002 15.13 2.21002C15.86 1.46002 16.88 1 18 1C19.18 1 20.25 1.51002 20.97 2.33002C21.61 3.04002 22 3.98 22 5Z" fill="white" stroke="#292D32" stroke-width="1.5" stroke-miterlimit="10" stroke-linecap="round" stroke-linejoin="round"/>
<path d="M19.49 4.97998H16.51" stroke="#292D32" stroke-width="1.5" stroke-miterlimit="10" stroke-linecap="round" stroke-linejoin="round"/>
<path d="M18 3.52002V6.51001" stroke="#292D32" stroke-width="1.5" stroke-miterlimit="10" stroke-linecap="round" stroke-linejoin="round"/>
</svg>
