<svg width="24" height="24" viewBox="0 0 24 24" fill="none" xmlns="http://www.w3.org/2000/svg">
<path fill-rule="evenodd" clip-rule="evenodd" d="M12.0581 2.00008C8.54647 1.98597 5.2856 3.80688 3.46062 6.80003C1.6354 9.79356 1.51287 13.5227 3.13767 16.6293L3.3215 16.9876C3.39177 17.1193 3.40533 17.2614 3.36461 17.3928C3.10206 18.0866 2.87138 18.8359 2.68731 19.5971L2.66777 19.7611C2.66777 20.5265 3.07618 21.0524 3.88674 21.0345L4.02171 21.0182C4.75803 20.8556 5.48317 20.6461 6.19268 20.391C6.28673 20.3673 6.44078 20.3765 6.57979 20.4334L7.26234 20.8196C7.26387 20.8244 7.26502 20.828 7.27217 20.8321L7.31798 20.8482C10.9931 22.7806 15.4815 22.2475 18.6 19.508C21.719 16.7682 22.8203 12.3901 21.3679 8.50383C19.9156 4.61791 16.2118 2.03061 12.0581 2.00008ZM11.7675 3.3987L12.0483 3.3943C15.6231 3.42149 18.811 5.64832 20.0606 8.99211C21.3102 12.3355 20.3627 16.102 17.6789 18.4595L17.4587 18.6465C14.8627 20.778 11.2582 21.2076 8.23262 19.7467L7.94488 19.6025L7.95722 19.6042L7.93901 19.5992L7.51669 19.3569C7.36462 19.2709 7.24399 19.2058 7.14676 19.159C6.6836 18.9681 6.21343 18.9399 5.77122 19.0617L5.35259 19.2055C5.07592 19.2968 4.80359 19.3794 4.53259 19.4541L4.13752 19.5573L4.04341 19.9249C4.21405 19.2192 4.4279 18.5246 4.68375 17.845C4.84839 17.3182 4.79805 16.7904 4.55741 16.3401L4.37648 15.9872C2.9761 13.3097 3.08151 10.1017 4.65182 7.52623C6.17327 5.03091 8.85488 3.48203 11.7675 3.3987ZM6.47452 12C6.47452 11.3698 6.98578 10.8594 7.6159 10.8594C8.24601 10.8594 8.75728 11.3698 8.75728 12C8.75728 12.6302 8.24601 13.1407 7.6159 13.1407C6.98578 13.1407 6.47452 12.6302 6.47452 12ZM10.9115 12C10.9115 11.3698 11.4227 10.8594 12.0528 10.8594C12.683 10.8594 13.1942 11.3698 13.1942 12C13.1942 12.6302 12.683 13.1407 12.0528 13.1407C11.4227 13.1407 10.9115 12.6302 10.9115 12ZM16.4898 10.8594C15.8597 10.8594 15.3484 11.3698 15.3484 12C15.3484 12.6302 15.8597 13.1407 16.4898 13.1407C17.1199 13.1407 17.6312 12.6302 17.6312 12C17.6312 11.3698 17.1199 10.8594 16.4898 10.8594Z" fill="#6160DC"/>
</svg>
